{"title":"The Ward *2010* [DVDSCR.XviD-miguel] [ENG]","uid":6440126,"size":673850904,"categoryP":"video","categoryS":"movies","magnet":"?xt=urn:btih:a5c7db33e72ff77921f83a9ca16ee85a44ef4fc2&amp;dn=The+Ward+%2A2010%2A+%5BDVDSCR.XviD-miguel%5D+%5BENG%5D&amp;tr=udp%3A%2F%2Ftracker.openbittorrent.com%3A80&amp;tr=udp%3A%2F%2Fopen.demonii.com%3A1337&amp;tr=udp%3A%2F%2Ftracker.coppersurfer.tk%3A6969&amp;tr=udp%3A%2F%2Fexodus.desync.com%3A6969","seeders":0,"leechers":1,"uploader":"miguel1983","files":-1,"time":1306952319,"description":" &lt;a href=&quot;http://img94.imageshack.us/img94/792/thewarde.jpg&quot; rel=&quot;nofollow&quot; target=&quot;_NEW&quot;&gt;http://img94.imageshack.us/img94/792/thewarde.jpg&lt;/a&gt;\n\nCountry.......: USA\nGenre.........: Horror\nDate release..: 13.09.2010 [World]\nDirector......: John Carpenter\nWriters.......: Michael Rasmussen, Shawn Rasmussen\nDuration......: 89 min.\nMore..........: http://www.imdb.com/title/tt1369706\nTrailer.......: http://www.imdb.com/video/imdb/vi2659556121\nTrailer.......:\n\nPilot :\nA thriller centered on an institutionalized young woman who becomes terrorized by a ghost\n\nCats :\nAmber Heard   \t ...  \tKristen\nLyndsy Fonseca \t... \tIris\nDanielle Panabaker \t... \tSarah\nJared Harris \t... \tDr. Stringer\nMika Boorem \t... \tAlice\nMamie Gummer \t... \tEmily\nReila Aphrodite \t... \tNaomi\nLaura Leigh \t... \tZoey\nSean Cook \t... \tJimmy\nSydney Sweeney \t... \tYoung Alice\nJillian Kramer \t... \tMonster Alice\nSali Sayler \t... \tTammy\nMilos Milicevic \t... \tPredator\nD.R. Anderson \t... \tRoy\nSusanna Burney \t... \tNurse Lundt \n\nData Technical :\n!!! SAMPLE !!!\nAudio.....: English\nSubtitles.: None\nFormat                           : AVI\nFormat/Info                      : Audio Video Interleave\nFile size                        : 639 MiB\nDuration                         : 1h 28mn\nOverall bit rate                 : 1 008 Kbps\nWriting application              : Lavf52.22.1\nVideo\nID                               : 0\nFormat                           : MPEG-4 Visual\nFormat profile                   : Simple@L1\nFormat settings, BVOP            : No\nFormat settings, QPel            : No\nFormat settings, GMC             : No warppoints\nFormat settings, Matrix          : Default (H.263)\nCodec ID                         : XVID\nCodec ID/Hint                    : XviD\nDuration                         : 1h 28mn\nBit rate                         : 868 Kbps\nWidth                            : 714 pixels\nHeight                           : 302 pixels\nDisplay aspect ratio             : 2.35:1\nFrame rate                       : 25.000 fps\nColor space                      : YUV\nChroma subsampling               : 4:2:0\nBit depth                        : 8 bits\nScan type                        : Progressive\nBits/(Pixel*Frame)               : 0.161\nStream size                      : 550 MiB (86%)\nWriting library                  : Lavc52.0.0\nAudio\nID                               : 1\nFormat                           : MPEG Audio\nFormat version                   : Version 1\nFormat profile                   : Layer 3\nCodec ID                         : 55\nCodec ID/Hint                    : MP3\nDuration                         : 1h 28mn\nBit rate mode                    : Constant\nBit rate                         : 128 Kbps\nChannel(s)                       : 2 channels\nSampling rate                    : 44.1 KHz\nStream size                      : 81.1 MiB (13%)\nAlignment                        : Aligned on interleaves\nInterleave, duration             : 26 ms (0.65 video frame)\n\nScreen : &lt;a href=&quot;\nhttp://img69.imageshack.us/img69/6783/theward2010s1.jpg&quot; rel=&quot;nofollow&quot; target=&quot;_NEW&quot;&gt;\nhttp://img69.imageshack.us/img69/6783/theward2010s1.jpg&lt;/a&gt; &lt;a href=&quot;\nhttp://img851.imageshack.us/img851/1816/theward2010s2.jpg&quot; rel=&quot;nofollow&quot; target=&quot;_NEW&quot;&gt;\nhttp://img851.imageshack.us/img851/1816/theward2010s2.jpg&lt;/a&gt; &lt;a href=&quot;\nhttp://img687.imageshack.us/img687/2251/theward2010s3.jpg&quot; rel=&quot;nofollow&quot; target=&quot;_NEW&quot;&gt;\nhttp://img687.imageshack.us/img687/2251/theward2010s3.jpg&lt;/a&gt; &lt;a href=&quot;\nhttp://img815.imageshack.us/img815/917/theward2010s4.jpg&quot; rel=&quot;nofollow&quot; target=&quot;_NEW&quot;&gt;\nhttp://img815.imageshack.us/img815/917/theward2010s4.jpg&lt;/a&gt; &lt;a href=&quot;\nhttp://img696.imageshack.us/img696/8817/theward2010s5.jpg&quot; rel=&quot;nofollow&quot; target=&quot;_NEW&quot;&gt;\nhttp://img696.imageshack.us/img696/8817/theward2010s5.jpg&lt;/a&gt;","torrent":{"xt":"urn:btih:a5c7db33e72ff77921f83a9ca16ee85a44ef4fc2","amp;dn":"The+Ward+%2A2010%2A+%5BDVDSCR.XviD-miguel%5D+%5BENG%5D","amp;tr":["udp%3A%2F%2Ftracker.openbittorrent.com%3A80","udp%3A%2F%2Fopen.demonii.com%3A1337","udp%3A%2F%2Ftracker.coppersurfer.tk%3A6969","udp%3A%2F%2Fexodus.desync.com%3A6969"],"infoHash":"a5c7db33e72ff77921f83a9ca16ee85a44ef4fc2","infoHashBuffer":{"type":"Buffer","data":[165,199,219,51,231,47,247,121,33,248,58,156,161,110,232,90,68,239,79,194]},"announce":[],"urlList":[]}}